<mxfile host="app.diagrams.net" modified="2021-07-01T09:33:35.453Z" agent="5.0 (Windows NT 10.0; Win64; x64) AppleWebKit/537.36 (KHTML, like Gecko) Chrome/91.0.4472.114 Safari/537.36" etag="m2YLndJvGw7ZH-9OTsbk" version="14.8.3" type="github">
  <diagram name="Page-1" id="929967ad-93f9-6ef4-fab6-5d389245f69c">
    <mxGraphModel dx="1422" dy="794" grid="1" gridSize="10" guides="1" tooltips="1" connect="1" arrows="1" fold="1" page="1" pageScale="1.5" pageWidth="1169" pageHeight="826" background="none" math="0" shadow="0">
      <root>
        <mxCell id="0" style=";html=1;" />
        <mxCell id="1" style=";html=1;" parent="0" />
        <mxCell id="1672d66443f91eb5-23" value="Title" style="text;strokeColor=none;fillColor=none;html=1;fontSize=24;fontStyle=1;verticalAlign=middle;align=center;" parent="1" vertex="1">
          <mxGeometry x="120" y="40" width="1510" height="40" as="geometry" />
        </mxCell>
        <mxCell id="teS-Bs2bx6SOoiW0aAiT-1" value="Mage_shppping_Model_Sales_Quote_Address" style="swimlane;fontStyle=1;align=center;verticalAlign=top;childLayout=stackLayout;horizontal=1;startSize=26;horizontalStack=0;resizeParent=1;resizeParentMax=0;resizeLast=0;collapsible=1;marginBottom=0;" vertex="1" parent="1">
          <mxGeometry x="340" y="1090" width="440" height="86" as="geometry" />
        </mxCell>
        <mxCell id="teS-Bs2bx6SOoiW0aAiT-2" value="+ $totalCollector: Mage_Sales_Model_Quote_Address_Total_Collector" style="text;strokeColor=none;fillColor=none;align=left;verticalAlign=top;spacingLeft=4;spacingRight=4;overflow=hidden;rotatable=0;points=[[0,0.5],[1,0.5]];portConstraint=eastwest;" vertex="1" parent="teS-Bs2bx6SOoiW0aAiT-1">
          <mxGeometry y="26" width="440" height="26" as="geometry" />
        </mxCell>
        <mxCell id="teS-Bs2bx6SOoiW0aAiT-3" value="" style="line;strokeWidth=1;fillColor=none;align=left;verticalAlign=middle;spacingTop=-1;spacingLeft=3;spacingRight=3;rotatable=0;labelPosition=right;points=[];portConstraint=eastwest;" vertex="1" parent="teS-Bs2bx6SOoiW0aAiT-1">
          <mxGeometry y="52" width="440" height="8" as="geometry" />
        </mxCell>
        <mxCell id="teS-Bs2bx6SOoiW0aAiT-4" value="+ collectTotals(type): type" style="text;strokeColor=none;fillColor=none;align=left;verticalAlign=top;spacingLeft=4;spacingRight=4;overflow=hidden;rotatable=0;points=[[0,0.5],[1,0.5]];portConstraint=eastwest;" vertex="1" parent="teS-Bs2bx6SOoiW0aAiT-1">
          <mxGeometry y="60" width="440" height="26" as="geometry" />
        </mxCell>
        <mxCell id="teS-Bs2bx6SOoiW0aAiT-5" value="Mage_Sales_Model_Quote_Address_Total_Collector" style="swimlane;fontStyle=1;align=center;verticalAlign=top;childLayout=stackLayout;horizontal=1;startSize=26;horizontalStack=0;resizeParent=1;resizeParentMax=0;resizeLast=0;collapsible=1;marginBottom=0;" vertex="1" parent="1">
          <mxGeometry x="377" y="1310" width="490" height="150" as="geometry" />
        </mxCell>
        <mxCell id="teS-Bs2bx6SOoiW0aAiT-6" value="+ $calactors : collectionOf Mage_Sales_Model_Quote_Address_Total_Abstract" style="text;strokeColor=none;fillColor=none;align=left;verticalAlign=top;spacingLeft=4;spacingRight=4;overflow=hidden;rotatable=0;points=[[0,0.5],[1,0.5]];portConstraint=eastwest;" vertex="1" parent="teS-Bs2bx6SOoiW0aAiT-5">
          <mxGeometry y="26" width="490" height="26" as="geometry" />
        </mxCell>
        <mxCell id="teS-Bs2bx6SOoiW0aAiT-7" value="" style="line;strokeWidth=1;fillColor=none;align=left;verticalAlign=middle;spacingTop=-1;spacingLeft=3;spacingRight=3;rotatable=0;labelPosition=right;points=[];portConstraint=eastwest;" vertex="1" parent="teS-Bs2bx6SOoiW0aAiT-5">
          <mxGeometry y="52" width="490" height="8" as="geometry" />
        </mxCell>
        <mxCell id="teS-Bs2bx6SOoiW0aAiT-8" value="+ getCollectors(type): type" style="text;strokeColor=none;fillColor=none;align=left;verticalAlign=top;spacingLeft=4;spacingRight=4;overflow=hidden;rotatable=0;points=[[0,0.5],[1,0.5]];portConstraint=eastwest;" vertex="1" parent="teS-Bs2bx6SOoiW0aAiT-5">
          <mxGeometry y="60" width="490" height="90" as="geometry" />
        </mxCell>
        <mxCell id="teS-Bs2bx6SOoiW0aAiT-9" value="Mage_Sales_Model_Quote_Address_Total_Abstract" style="swimlane;fontStyle=1;align=center;verticalAlign=top;childLayout=stackLayout;horizontal=1;startSize=26;horizontalStack=0;resizeParent=1;resizeParentMax=0;resizeLast=0;collapsible=1;marginBottom=0;" vertex="1" parent="1">
          <mxGeometry x="390" y="1560" width="453" height="86" as="geometry" />
        </mxCell>
        <mxCell id="teS-Bs2bx6SOoiW0aAiT-10" value="+ field: type" style="text;strokeColor=none;fillColor=none;align=left;verticalAlign=top;spacingLeft=4;spacingRight=4;overflow=hidden;rotatable=0;points=[[0,0.5],[1,0.5]];portConstraint=eastwest;" vertex="1" parent="teS-Bs2bx6SOoiW0aAiT-9">
          <mxGeometry y="26" width="453" height="26" as="geometry" />
        </mxCell>
        <mxCell id="teS-Bs2bx6SOoiW0aAiT-11" value="" style="line;strokeWidth=1;fillColor=none;align=left;verticalAlign=middle;spacingTop=-1;spacingLeft=3;spacingRight=3;rotatable=0;labelPosition=right;points=[];portConstraint=eastwest;" vertex="1" parent="teS-Bs2bx6SOoiW0aAiT-9">
          <mxGeometry y="52" width="453" height="8" as="geometry" />
        </mxCell>
        <mxCell id="teS-Bs2bx6SOoiW0aAiT-12" value="+ collect($quoteAddress): type" style="text;strokeColor=none;fillColor=none;align=left;verticalAlign=top;spacingLeft=4;spacingRight=4;overflow=hidden;rotatable=0;points=[[0,0.5],[1,0.5]];portConstraint=eastwest;" vertex="1" parent="teS-Bs2bx6SOoiW0aAiT-9">
          <mxGeometry y="60" width="453" height="26" as="geometry" />
        </mxCell>
        <mxCell id="teS-Bs2bx6SOoiW0aAiT-17" value="Mage_SalesRule_Model_Validator" style="swimlane;fontStyle=1;align=center;verticalAlign=top;childLayout=stackLayout;horizontal=1;startSize=26;horizontalStack=0;resizeParent=1;resizeParentMax=0;resizeLast=0;collapsible=1;marginBottom=0;" vertex="1" parent="1">
          <mxGeometry x="1200" y="1730" width="380" height="86" as="geometry" />
        </mxCell>
        <mxCell id="teS-Bs2bx6SOoiW0aAiT-18" value="+ $rules: type" style="text;strokeColor=none;fillColor=none;align=left;verticalAlign=top;spacingLeft=4;spacingRight=4;overflow=hidden;rotatable=0;points=[[0,0.5],[1,0.5]];portConstraint=eastwest;" vertex="1" parent="teS-Bs2bx6SOoiW0aAiT-17">
          <mxGeometry y="26" width="380" height="26" as="geometry" />
        </mxCell>
        <mxCell id="teS-Bs2bx6SOoiW0aAiT-19" value="" style="line;strokeWidth=1;fillColor=none;align=left;verticalAlign=middle;spacingTop=-1;spacingLeft=3;spacingRight=3;rotatable=0;labelPosition=right;points=[];portConstraint=eastwest;" vertex="1" parent="teS-Bs2bx6SOoiW0aAiT-17">
          <mxGeometry y="52" width="380" height="8" as="geometry" />
        </mxCell>
        <mxCell id="teS-Bs2bx6SOoiW0aAiT-20" value="+ method(type): type" style="text;strokeColor=none;fillColor=none;align=left;verticalAlign=top;spacingLeft=4;spacingRight=4;overflow=hidden;rotatable=0;points=[[0,0.5],[1,0.5]];portConstraint=eastwest;" vertex="1" parent="teS-Bs2bx6SOoiW0aAiT-17">
          <mxGeometry y="60" width="380" height="26" as="geometry" />
        </mxCell>
        <mxCell id="teS-Bs2bx6SOoiW0aAiT-21" value="Mage_SalesRule_Model_Rule" style="swimlane;fontStyle=1;align=center;verticalAlign=top;childLayout=stackLayout;horizontal=1;startSize=26;horizontalStack=0;resizeParent=1;resizeParentMax=0;resizeLast=0;collapsible=1;marginBottom=0;" vertex="1" parent="1">
          <mxGeometry x="1710" y="1700" width="270" height="86" as="geometry" />
        </mxCell>
        <mxCell id="teS-Bs2bx6SOoiW0aAiT-22" value="+ field: type" style="text;strokeColor=none;fillColor=none;align=left;verticalAlign=top;spacingLeft=4;spacingRight=4;overflow=hidden;rotatable=0;points=[[0,0.5],[1,0.5]];portConstraint=eastwest;" vertex="1" parent="teS-Bs2bx6SOoiW0aAiT-21">
          <mxGeometry y="26" width="270" height="26" as="geometry" />
        </mxCell>
        <mxCell id="teS-Bs2bx6SOoiW0aAiT-23" value="" style="line;strokeWidth=1;fillColor=none;align=left;verticalAlign=middle;spacingTop=-1;spacingLeft=3;spacingRight=3;rotatable=0;labelPosition=right;points=[];portConstraint=eastwest;" vertex="1" parent="teS-Bs2bx6SOoiW0aAiT-21">
          <mxGeometry y="52" width="270" height="8" as="geometry" />
        </mxCell>
        <mxCell id="teS-Bs2bx6SOoiW0aAiT-24" value="+ method(type): type" style="text;strokeColor=none;fillColor=none;align=left;verticalAlign=top;spacingLeft=4;spacingRight=4;overflow=hidden;rotatable=0;points=[[0,0.5],[1,0.5]];portConstraint=eastwest;" vertex="1" parent="teS-Bs2bx6SOoiW0aAiT-21">
          <mxGeometry y="60" width="270" height="26" as="geometry" />
        </mxCell>
        <mxCell id="teS-Bs2bx6SOoiW0aAiT-25" value="Mage_SalesRule_Model_Quote_Discount" style="swimlane;fontStyle=1;align=center;verticalAlign=top;childLayout=stackLayout;horizontal=1;startSize=26;horizontalStack=0;resizeParent=1;resizeParentMax=0;resizeLast=0;collapsible=1;marginBottom=0;" vertex="1" parent="1">
          <mxGeometry x="630" y="2070" width="323" height="86" as="geometry" />
        </mxCell>
        <mxCell id="teS-Bs2bx6SOoiW0aAiT-26" value="- colector: Mage_SalesRule_Model_Validator" style="text;strokeColor=none;fillColor=none;align=left;verticalAlign=top;spacingLeft=4;spacingRight=4;overflow=hidden;rotatable=0;points=[[0,0.5],[1,0.5]];portConstraint=eastwest;" vertex="1" parent="teS-Bs2bx6SOoiW0aAiT-25">
          <mxGeometry y="26" width="323" height="26" as="geometry" />
        </mxCell>
        <mxCell id="teS-Bs2bx6SOoiW0aAiT-27" value="" style="line;strokeWidth=1;fillColor=none;align=left;verticalAlign=middle;spacingTop=-1;spacingLeft=3;spacingRight=3;rotatable=0;labelPosition=right;points=[];portConstraint=eastwest;" vertex="1" parent="teS-Bs2bx6SOoiW0aAiT-25">
          <mxGeometry y="52" width="323" height="8" as="geometry" />
        </mxCell>
        <mxCell id="teS-Bs2bx6SOoiW0aAiT-28" value="+ method(type): type" style="text;strokeColor=none;fillColor=none;align=left;verticalAlign=top;spacingLeft=4;spacingRight=4;overflow=hidden;rotatable=0;points=[[0,0.5],[1,0.5]];portConstraint=eastwest;" vertex="1" parent="teS-Bs2bx6SOoiW0aAiT-25">
          <mxGeometry y="60" width="323" height="26" as="geometry" />
        </mxCell>
        <mxCell id="teS-Bs2bx6SOoiW0aAiT-30" value="Extends" style="endArrow=block;endSize=16;endFill=0;html=1;exitX=0.5;exitY=0;exitDx=0;exitDy=0;entryX=0.892;entryY=0.962;entryDx=0;entryDy=0;entryPerimeter=0;" edge="1" parent="1" source="teS-Bs2bx6SOoiW0aAiT-25" target="teS-Bs2bx6SOoiW0aAiT-12">
          <mxGeometry width="160" relative="1" as="geometry">
            <mxPoint x="740" y="1770" as="sourcePoint" />
            <mxPoint x="900" y="1770" as="targetPoint" />
          </mxGeometry>
        </mxCell>
        <mxCell id="teS-Bs2bx6SOoiW0aAiT-31" value="Mage_SalesRule_Model_Quote_Freeshipping" style="swimlane;fontStyle=1;align=center;verticalAlign=top;childLayout=stackLayout;horizontal=1;startSize=26;horizontalStack=0;resizeParent=1;resizeParentMax=0;resizeLast=0;collapsible=1;marginBottom=0;" vertex="1" parent="1">
          <mxGeometry x="398.5" y="1900" width="323" height="86" as="geometry" />
        </mxCell>
        <mxCell id="teS-Bs2bx6SOoiW0aAiT-33" value="" style="line;strokeWidth=1;fillColor=none;align=left;verticalAlign=middle;spacingTop=-1;spacingLeft=3;spacingRight=3;rotatable=0;labelPosition=right;points=[];portConstraint=eastwest;" vertex="1" parent="teS-Bs2bx6SOoiW0aAiT-31">
          <mxGeometry y="26" width="323" height="8" as="geometry" />
        </mxCell>
        <mxCell id="teS-Bs2bx6SOoiW0aAiT-32" value="- colector: Mage_SalesRule_Model_Validator" style="text;strokeColor=none;fillColor=none;align=left;verticalAlign=top;spacingLeft=4;spacingRight=4;overflow=hidden;rotatable=0;points=[[0,0.5],[1,0.5]];portConstraint=eastwest;" vertex="1" parent="teS-Bs2bx6SOoiW0aAiT-31">
          <mxGeometry y="34" width="323" height="26" as="geometry" />
        </mxCell>
        <mxCell id="teS-Bs2bx6SOoiW0aAiT-34" value="+ method(type): type" style="text;strokeColor=none;fillColor=none;align=left;verticalAlign=top;spacingLeft=4;spacingRight=4;overflow=hidden;rotatable=0;points=[[0,0.5],[1,0.5]];portConstraint=eastwest;" vertex="1" parent="teS-Bs2bx6SOoiW0aAiT-31">
          <mxGeometry y="60" width="323" height="26" as="geometry" />
        </mxCell>
        <mxCell id="teS-Bs2bx6SOoiW0aAiT-35" value="Extends" style="endArrow=block;endSize=16;endFill=0;html=1;exitX=0.656;exitY=0.023;exitDx=0;exitDy=0;exitPerimeter=0;" edge="1" parent="1" source="teS-Bs2bx6SOoiW0aAiT-31" target="teS-Bs2bx6SOoiW0aAiT-12">
          <mxGeometry width="160" relative="1" as="geometry">
            <mxPoint x="821.5" y="1900" as="sourcePoint" />
            <mxPoint x="480" y="1655" as="targetPoint" />
          </mxGeometry>
        </mxCell>
      </root>
    </mxGraphModel>
  </diagram>
</mxfile>
